<svg xmlns="http://www.w3.org/2000/svg" version="1.1" xmlns:xlink="http://www.w3.org/1999/xlink" xmlns:svgjs="http://svgjs.dev/svgjs" width="2000" height="1500" viewBox="0 0 2000 1500"><rect width="2000" height="1500" fill="#e7d1c2"></rect><g transform="matrix(0.75,0,0,0.75,249.090909090909,282.7536437246963)"><svg viewBox="0 0 396 247" data-background-color="#e7d1c2" preserveAspectRatio="xMidYMid meet" height="1247" width="2000" xmlns="http://www.w3.org/2000/svg" xmlns:xlink="http://www.w3.org/1999/xlink"><g id="tight-bounds" transform="matrix(1,0,0,1,0.2400000000000091,-0.09999999999999432)"><svg viewBox="0 0 395.52 247.2" height="247.2" width="395.52"><g><svg></svg></g><g><svg viewBox="0 0 395.52 247.2" height="247.2" width="395.52"><g transform="matrix(1,0,0,1,75.54432000000001,81.88986709743968)"><svg viewBox="0 0 244.43135999999996 83.42026580512064" height="83.42026580512064" width="244.43135999999996"><g><svg viewBox="0 0 244.43135999999996 83.42026580512064" height="83.42026580512064" width="244.43135999999996"><g><svg viewBox="0 0 244.43135999999996 83.42026580512064" height="83.42026580512064" width="244.43135999999996"><g transform="matrix(1,0,0,1,0,46.32316631265622)"><svg viewBox="0 0 244.43135999999996 37.09709949246441" height="37.09709949246441" width="244.43135999999996"><g id="textblocktransform"><svg viewBox="0 0 244.43135999999996 37.09709949246441" height="37.09709949246441" width="244.43135999999996" id="textblock"><g><svg viewBox="0 0 244.43135999999996 20.31520018469352" height="20.31520018469352" width="244.43135999999996"><g transform="matrix(1,0,0,1,0,0)"><svg width="244.43135999999996" viewBox="2.65 -35.5 433.11 36" height="20.31520018469352" data-palette-color="#ee7d23"><path d="M17.4 0.5L17.4 0.5Q12.75 0.5 9.53-1.13 6.3-2.75 4.6-5.78 2.9-8.8 2.7-13.05L2.7-13.05Q2.65-15.1 2.65-17.45 2.65-19.8 2.7-21.95L2.7-21.95Q2.9-26.15 4.63-29.2 6.35-32.25 9.58-33.88 12.8-35.5 17.4-35.5L17.4-35.5Q20.8-35.5 23.5-34.6 26.2-33.7 28.1-32.13 30-30.55 31.05-28.45 32.1-26.35 32.15-23.9L32.15-23.9Q32.2-23.45 31.88-23.15 31.55-22.85 31.1-22.85L31.1-22.85 26.35-22.85Q25.8-22.85 25.45-23.13 25.1-23.4 24.95-24.05L24.95-24.05Q24.15-27.35 22.2-28.55 20.25-29.75 17.35-29.75L17.35-29.75Q14-29.75 12-27.88 10-26 9.85-21.7L9.85-21.7Q9.7-17.6 9.85-13.3L9.85-13.3Q10-9 12-7.13 14-5.25 17.35-5.25L17.35-5.25Q20.25-5.25 22.23-6.48 24.2-7.7 24.95-10.95L24.95-10.95Q25.1-11.65 25.45-11.9 25.8-12.15 26.35-12.15L26.35-12.15 31.1-12.15Q31.55-12.15 31.88-11.85 32.2-11.55 32.15-11.1L32.15-11.1Q32.1-8.65 31.05-6.55 30-4.45 28.1-2.88 26.2-1.3 23.5-0.4 20.8 0.5 17.4 0.5ZM49 0.5L49 0.5Q45 0.5 42.27-0.9 39.55-2.3 38.12-4.85 36.7-7.4 36.5-10.8L36.5-10.8Q36.45-11.7 36.45-13 36.45-14.3 36.5-15.2L36.5-15.2Q36.7-18.65 38.17-21.18 39.65-23.7 42.37-25.1 45.1-26.5 49-26.5L49-26.5Q52.9-26.5 55.62-25.1 58.35-23.7 59.82-21.18 61.3-18.65 61.5-15.2L61.5-15.2Q61.55-14.3 61.55-13 61.55-11.7 61.5-10.8L61.5-10.8Q61.3-7.4 59.87-4.85 58.45-2.3 55.72-0.9 53 0.5 49 0.5ZM49-4.45L49-4.45Q51.65-4.45 53.1-6.13 54.55-7.8 54.7-11.05L54.7-11.05Q54.75-11.8 54.75-13 54.75-14.2 54.7-14.95L54.7-14.95Q54.55-18.2 53.1-19.88 51.65-21.55 49-21.55L49-21.55Q46.35-21.55 44.9-19.88 43.45-18.2 43.3-14.95L43.3-14.95Q43.25-14.2 43.25-13 43.25-11.8 43.3-11.05L43.3-11.05Q43.45-7.8 44.9-6.13 46.35-4.45 49-4.45ZM87.4 0L67 0Q66.45 0 66.12-0.35 65.8-0.7 65.8-1.2L65.8-1.2 65.8-4.05Q65.8-4.5 66.02-4.93 66.25-5.35 66.5-5.65L66.5-5.65 79.3-20.8 67.4-20.8Q66.9-20.8 66.55-21.13 66.2-21.45 66.2-22L66.2-22 66.2-24.8Q66.2-25.3 66.55-25.65 66.9-26 67.4-26L67.4-26 86.35-26Q86.9-26 87.22-25.65 87.55-25.3 87.55-24.8L87.55-24.8 87.55-21.75Q87.55-21.3 87.35-20.95 87.15-20.6 86.85-20.25L86.85-20.25 74.35-5.2 87.4-5.2Q87.9-5.2 88.25-4.88 88.6-4.55 88.6-4L88.6-4 88.6-1.2Q88.6-0.7 88.25-0.35 87.9 0 87.4 0L87.4 0ZM103.29 0.5L103.29 0.5Q100.24 0.5 98.02-0.88 95.79-2.25 94.59-4.78 93.39-7.3 93.39-10.75L93.39-10.75 93.39-24.8Q93.39-25.3 93.74-25.65 94.09-26 94.59-26L94.59-26 98.99-26Q99.54-26 99.87-25.65 100.19-25.3 100.19-24.8L100.19-24.8 100.19-11.05Q100.19-4.85 105.64-4.85L105.64-4.85Q108.24-4.85 109.77-6.5 111.29-8.15 111.29-11.05L111.29-11.05 111.29-24.8Q111.29-25.3 111.64-25.65 111.99-26 112.49-26L112.49-26 116.89-26Q117.39-26 117.74-25.65 118.09-25.3 118.09-24.8L118.09-24.8 118.09-1.2Q118.09-0.7 117.74-0.35 117.39 0 116.89 0L116.89 0 112.84 0Q112.29 0 111.97-0.35 111.64-0.7 111.64-1.2L111.64-1.2 111.64-3.25Q110.29-1.5 108.29-0.5 106.29 0.5 103.29 0.5ZM130.09 0L125.89 0Q125.39 0 125.04-0.35 124.69-0.7 124.69-1.2L124.69-1.2 124.69-24.8Q124.69-25.3 125.04-25.65 125.39-26 125.89-26L125.89-26 129.79-26Q130.29-26 130.64-25.65 130.99-25.3 130.99-24.8L130.99-24.8 130.99-23.1Q132.04-24.5 133.82-25.48 135.59-26.45 138.04-26.5L138.04-26.5Q143.74-26.6 145.99-22.05L145.99-22.05Q147.14-24.05 149.32-25.28 151.49-26.5 154.14-26.5L154.14-26.5Q156.74-26.5 158.87-25.3 160.99-24.1 162.22-21.68 163.44-19.25 163.44-15.55L163.44-15.55 163.44-1.2Q163.44-0.7 163.09-0.35 162.74 0 162.24 0L162.24 0 158.14 0Q157.64 0 157.29-0.35 156.94-0.7 156.94-1.2L156.94-1.2 156.94-15.15Q156.94-17.4 156.29-18.73 155.64-20.05 154.54-20.6 153.44-21.15 152.09-21.15L152.09-21.15Q150.99-21.15 149.89-20.6 148.79-20.05 148.09-18.73 147.39-17.4 147.39-15.15L147.39-15.15 147.39-1.2Q147.39-0.7 147.04-0.35 146.69 0 146.19 0L146.19 0 142.09 0Q141.59 0 141.24-0.35 140.89-0.7 140.89-1.2L140.89-1.2 140.89-15.15Q140.89-17.4 140.19-18.73 139.49-20.05 138.39-20.6 137.29-21.15 136.04-21.15L136.04-21.15Q134.89-21.15 133.79-20.58 132.69-20 131.99-18.7 131.29-17.4 131.29-15.15L131.29-15.15 131.29-1.2Q131.29-0.7 130.94-0.35 130.59 0 130.09 0L130.09 0ZM180.99 0.5L180.99 0.5Q175.44 0.5 172.19-2.7 168.94-5.9 168.69-11.8L168.69-11.8Q168.64-12.3 168.64-13.08 168.64-13.85 168.69-14.3L168.69-14.3Q168.89-18.1 170.41-20.83 171.94-23.55 174.64-25.03 177.34-26.5 180.99-26.5L180.99-26.5Q185.04-26.5 187.79-24.83 190.54-23.15 191.94-20.18 193.34-17.2 193.34-13.3L193.34-13.3 193.34-12.25Q193.34-11.75 192.99-11.4 192.64-11.05 192.09-11.05L192.09-11.05 175.49-11.05Q175.49-11.05 175.49-10.9 175.49-10.75 175.49-10.65L175.49-10.65Q175.54-8.9 176.16-7.43 176.79-5.95 178.01-5.05 179.24-4.15 180.94-4.15L180.94-4.15Q182.34-4.15 183.29-4.58 184.24-5 184.84-5.55 185.44-6.1 185.69-6.45L185.69-6.45Q186.14-7.05 186.41-7.18 186.69-7.3 187.24-7.3L187.24-7.3 191.54-7.3Q192.04-7.3 192.36-7 192.69-6.7 192.64-6.25L192.64-6.25Q192.59-5.45 191.81-4.3 191.04-3.15 189.59-2.05 188.14-0.95 185.96-0.23 183.79 0.5 180.99 0.5ZM175.49-15.4L175.49-15.25 186.54-15.25 186.54-15.4Q186.54-17.35 185.89-18.82 185.24-20.3 183.99-21.13 182.74-21.95 180.99-21.95L180.99-21.95Q179.24-21.95 177.99-21.13 176.74-20.3 176.11-18.82 175.49-17.35 175.49-15.4L175.49-15.4ZM204.03 0L199.89 0Q199.39 0 199.03-0.35 198.69-0.7 198.69-1.2L198.69-1.2 198.69-34.3Q198.69-34.8 199.03-35.15 199.39-35.5 199.89-35.5L199.89-35.5 204.03-35.5Q204.53-35.5 204.89-35.15 205.24-34.8 205.24-34.3L205.24-34.3 205.24-1.2Q205.24-0.7 204.89-0.35 204.53 0 204.03 0L204.03 0ZM236.08 0.5L236.08 0.5Q231.43 0.5 228.31-0.88 225.18-2.25 223.56-4.48 221.93-6.7 221.83-9.15L221.83-9.15Q221.83-9.6 222.13-9.9 222.43-10.2 222.88-10.2L222.88-10.2 227.33-10.2Q227.98-10.2 228.31-9.93 228.63-9.65 228.88-9.25L228.88-9.25Q229.18-8.3 230.03-7.38 230.88-6.45 232.35-5.85 233.83-5.25 236.08-5.25L236.08-5.25Q239.68-5.25 241.46-6.45 243.23-7.65 243.23-9.7L243.23-9.7Q243.23-11.15 242.28-12.03 241.33-12.9 239.36-13.63 237.38-14.35 234.13-15.15L234.13-15.15Q230.38-16.05 227.85-17.32 225.33-18.6 224.06-20.55 222.78-22.5 222.78-25.5L222.78-25.5Q222.78-28.4 224.35-30.65 225.93-32.9 228.85-34.2 231.78-35.5 235.83-35.5L235.83-35.5Q239.08-35.5 241.58-34.63 244.08-33.75 245.73-32.33 247.38-30.9 248.25-29.28 249.13-27.65 249.18-26.1L249.18-26.1Q249.18-25.7 248.91-25.38 248.63-25.05 248.13-25.05L248.13-25.05 243.48-25.05Q243.08-25.05 242.68-25.25 242.28-25.45 242.03-26L242.03-26Q241.73-27.55 240.08-28.65 238.43-29.75 235.83-29.75L235.83-29.75Q233.13-29.75 231.48-28.75 229.83-27.75 229.83-25.65L229.83-25.65Q229.83-24.25 230.66-23.33 231.48-22.4 233.31-21.7 235.13-21 238.13-20.2L238.13-20.2Q242.38-19.25 245.08-18 247.78-16.75 249.03-14.83 250.28-12.9 250.28-9.95L250.28-9.95Q250.28-6.65 248.5-4.33 246.73-2 243.53-0.75 240.33 0.5 236.08 0.5ZM266.68 0.5L266.68 0.5Q263.08 0.5 260.35-0.85 257.63-2.2 256.1-4.78 254.58-7.35 254.43-11L254.43-11Q254.38-11.75 254.38-12.98 254.38-14.2 254.43-15L254.43-15Q254.58-18.65 256.1-21.23 257.63-23.8 260.35-25.15 263.08-26.5 266.68-26.5L266.68-26.5Q269.88-26.5 272.13-25.63 274.38-24.75 275.83-23.38 277.28-22 278-20.53 278.73-19.05 278.78-17.85L278.78-17.85Q278.83-17.3 278.45-16.98 278.08-16.65 277.58-16.65L277.58-16.65 273.18-16.65Q272.68-16.65 272.4-16.9 272.13-17.15 271.88-17.65L271.88-17.65Q271.13-19.65 269.9-20.48 268.68-21.3 266.78-21.3L266.78-21.3Q264.28-21.3 262.8-19.73 261.33-18.15 261.23-14.75L261.23-14.75Q261.13-12.85 261.23-11.25L261.23-11.25Q261.33-7.8 262.8-6.25 264.28-4.7 266.78-4.7L266.78-4.7Q268.73-4.7 269.93-5.53 271.13-6.35 271.88-8.35L271.88-8.35Q272.13-8.85 272.4-9.1 272.68-9.35 273.18-9.35L273.18-9.35 277.58-9.35Q278.08-9.35 278.45-9.03 278.83-8.7 278.78-8.15L278.78-8.15Q278.73-7.25 278.3-6.13 277.88-5 276.95-3.83 276.03-2.65 274.63-1.68 273.23-0.7 271.25-0.1 269.28 0.5 266.68 0.5ZM295.48 0.5L295.48 0.5Q291.48 0.5 288.75-0.9 286.03-2.3 284.6-4.85 283.18-7.4 282.98-10.8L282.98-10.8Q282.93-11.7 282.93-13 282.93-14.3 282.98-15.2L282.98-15.2Q283.18-18.65 284.65-21.18 286.13-23.7 288.85-25.1 291.57-26.5 295.48-26.5L295.48-26.5Q299.38-26.5 302.1-25.1 304.82-23.7 306.3-21.18 307.78-18.65 307.98-15.2L307.98-15.2Q308.03-14.3 308.03-13 308.03-11.7 307.98-10.8L307.98-10.8Q307.78-7.4 306.35-4.85 304.93-2.3 302.2-0.9 299.48 0.5 295.48 0.5ZM295.48-4.45L295.48-4.45Q298.13-4.45 299.57-6.13 301.03-7.8 301.18-11.05L301.18-11.05Q301.23-11.8 301.23-13 301.23-14.2 301.18-14.95L301.18-14.95Q301.03-18.2 299.57-19.88 298.13-21.55 295.48-21.55L295.48-21.55Q292.82-21.55 291.38-19.88 289.93-18.2 289.78-14.95L289.78-14.95Q289.73-14.2 289.73-13 289.73-11.8 289.78-11.05L289.78-11.05Q289.93-7.8 291.38-6.13 292.82-4.45 295.48-4.45ZM325.07 0.5L325.07 0.5Q321.07 0.5 318.35-0.9 315.62-2.3 314.2-4.85 312.77-7.4 312.57-10.8L312.57-10.8Q312.52-11.7 312.52-13 312.52-14.3 312.57-15.2L312.57-15.2Q312.77-18.65 314.25-21.18 315.72-23.7 318.45-25.1 321.17-26.5 325.07-26.5L325.07-26.5Q328.97-26.5 331.7-25.1 334.42-23.7 335.9-21.18 337.37-18.65 337.57-15.2L337.57-15.2Q337.62-14.3 337.62-13 337.62-11.7 337.57-10.8L337.57-10.8Q337.37-7.4 335.95-4.85 334.52-2.3 331.8-0.9 329.07 0.5 325.07 0.5ZM325.07-4.45L325.07-4.45Q327.72-4.45 329.17-6.13 330.62-7.8 330.77-11.05L330.77-11.05Q330.82-11.8 330.82-13 330.82-14.2 330.77-14.95L330.77-14.95Q330.62-18.2 329.17-19.88 327.72-21.55 325.07-21.55L325.07-21.55Q322.42-21.55 320.97-19.88 319.52-18.2 319.37-14.95L319.37-14.95Q319.32-14.2 319.32-13 319.32-11.8 319.37-11.05L319.37-11.05Q319.52-7.8 320.97-6.13 322.42-4.45 325.07-4.45ZM358.97 0L354.92 0Q351.92 0 349.87-1.05 347.82-2.1 346.82-4.17 345.82-6.25 345.82-9.35L345.82-9.35 345.82-20.7 341.87-20.7Q341.37-20.7 341.02-21.05 340.67-21.4 340.67-21.95L340.67-21.95 340.67-24.8Q340.67-25.3 341.02-25.65 341.37-26 341.87-26L341.87-26 345.82-26 345.82-34.3Q345.82-34.8 346.15-35.15 346.47-35.5 347.02-35.5L347.02-35.5 351.07-35.5Q351.57-35.5 351.92-35.15 352.27-34.8 352.27-34.3L352.27-34.3 352.27-26 358.52-26Q359.02-26 359.37-25.65 359.72-25.3 359.72-24.8L359.72-24.8 359.72-21.95Q359.72-21.4 359.37-21.05 359.02-20.7 358.52-20.7L358.52-20.7 352.27-20.7 352.27-9.85Q352.27-7.8 353-6.65 353.72-5.5 355.52-5.5L355.52-5.5 358.97-5.5Q359.47-5.5 359.82-5.15 360.17-4.8 360.17-4.3L360.17-4.3 360.17-1.2Q360.17-0.7 359.82-0.35 359.47 0 358.97 0L358.97 0ZM375.82 0.5L375.82 0.5Q370.27 0.5 367.02-2.7 363.77-5.9 363.52-11.8L363.52-11.8Q363.47-12.3 363.47-13.08 363.47-13.85 363.52-14.3L363.52-14.3Q363.72-18.1 365.24-20.83 366.77-23.55 369.47-25.03 372.17-26.5 375.82-26.5L375.82-26.5Q379.87-26.5 382.62-24.83 385.37-23.15 386.77-20.18 388.17-17.2 388.17-13.3L388.17-13.3 388.17-12.25Q388.17-11.75 387.82-11.4 387.47-11.05 386.92-11.05L386.92-11.05 370.32-11.05Q370.32-11.05 370.32-10.9 370.32-10.75 370.32-10.65L370.32-10.65Q370.37-8.9 370.99-7.43 371.62-5.95 372.84-5.05 374.07-4.15 375.77-4.15L375.77-4.15Q377.17-4.15 378.12-4.58 379.07-5 379.67-5.55 380.27-6.1 380.52-6.45L380.52-6.45Q380.97-7.05 381.24-7.18 381.52-7.3 382.07-7.3L382.07-7.3 386.37-7.3Q386.87-7.3 387.19-7 387.52-6.7 387.47-6.25L387.47-6.25Q387.42-5.45 386.64-4.3 385.87-3.15 384.42-2.05 382.97-0.95 380.79-0.23 378.62 0.5 375.82 0.5ZM370.32-15.4L370.32-15.25 381.37-15.25 381.37-15.4Q381.37-17.35 380.72-18.82 380.07-20.3 378.82-21.13 377.57-21.95 375.82-21.95L375.82-21.95Q374.07-21.95 372.82-21.13 371.57-20.3 370.94-18.82 370.32-17.35 370.32-15.4L370.32-15.4ZM399.02 0L394.67 0Q394.17 0 393.82-0.35 393.47-0.7 393.47-1.2L393.47-1.2 393.47-24.75Q393.47-25.3 393.82-25.65 394.17-26 394.67-26L394.67-26 398.72-26Q399.22-26 399.59-25.65 399.97-25.3 399.97-24.75L399.97-24.75 399.97-22.7Q401.12-24.3 402.94-25.15 404.77-26 407.17-26L407.17-26 409.22-26Q409.77-26 410.09-25.65 410.42-25.3 410.42-24.8L410.42-24.8 410.42-21.2Q410.42-20.7 410.09-20.35 409.77-20 409.22-20L409.22-20 405.32-20Q402.92-20 401.59-18.68 400.27-17.35 400.27-14.95L400.27-14.95 400.27-1.2Q400.27-0.7 399.92-0.35 399.57 0 399.02 0L399.02 0ZM424.16 0.5L424.16 0.5Q421.16 0.5 419.04-0.2 416.91-0.9 415.56-1.95 414.21-3 413.56-4.05 412.91-5.1 412.86-5.8L412.86-5.8Q412.81-6.35 413.19-6.68 413.56-7 414.01-7L414.01-7 417.96-7Q418.16-7 418.31-6.95 418.46-6.9 418.71-6.65L418.71-6.65Q419.36-6.1 420.09-5.5 420.81-4.9 421.81-4.48 422.81-4.05 424.31-4.05L424.31-4.05Q426.26-4.05 427.59-4.83 428.91-5.6 428.91-7.05L428.91-7.05Q428.91-8.1 428.34-8.75 427.76-9.4 426.21-9.93 424.66-10.45 421.81-11.05L421.81-11.05Q419.01-11.7 417.16-12.7 415.31-13.7 414.41-15.2 413.51-16.7 413.51-18.7L413.51-18.7Q413.51-20.65 414.69-22.43 415.86-24.2 418.19-25.35 420.51-26.5 423.96-26.5L423.96-26.5Q426.66-26.5 428.66-25.83 430.66-25.15 431.99-24.15 433.31-23.15 434.01-22.13 434.71-21.1 434.76-20.35L434.76-20.35Q434.81-19.8 434.46-19.48 434.11-19.15 433.66-19.15L433.66-19.15 429.96-19.15Q429.71-19.15 429.51-19.25 429.31-19.35 429.11-19.5L429.11-19.5Q428.56-20 427.91-20.58 427.26-21.15 426.34-21.55 425.41-21.95 423.91-21.95L423.91-21.95Q422.01-21.95 421.01-21.13 420.01-20.3 420.01-19.05L420.01-19.05Q420.01-18.2 420.49-17.57 420.96-16.95 422.41-16.4 423.86-15.85 426.81-15.25L426.81-15.25Q430.16-14.65 432.14-13.48 434.11-12.3 434.94-10.78 435.76-9.25 435.76-7.4L435.76-7.4Q435.76-5.15 434.44-3.35 433.11-1.55 430.54-0.53 427.96 0.5 424.16 0.5Z" opacity="1" transform="matrix(1,0,0,1,0,0)" fill="#ee7d23" class="wordmark-text-0" data-fill-palette-color="primary" id="text-0"></path></svg></g></svg></g><g transform="matrix(1,0,0,1,0,25.111131383495227)"><svg viewBox="0 0 244.43135999999996 11.985968108969177" height="11.985968108969177" width="244.43135999999996"><g transform="matrix(1,0,0,1,0,0)"><svg width="244.43135999999996" viewBox="3.56 -37.5 971.86 47.66" height="11.985968108969177" data-palette-color="#ee7d23"><path d="M26.88-5.05L26.88 0 8.11 0 8.11-5.05 26.88-5.05ZM9.86-35.55L9.86 0 3.56 0 3.56-35.55 9.86-35.55ZM24.41-20.8L24.41-15.82 8.11-15.82 8.11-20.8 24.41-20.8ZM26.76-35.55L26.76-30.47 8.11-30.47 8.11-35.55 26.76-35.55ZM37.65-26.42L42.56-17.85 47.54-26.42 54.18-26.42 46.22-13.45 54.47 0 47.86 0 42.58-8.96 37.36 0 30.67 0 38.94-13.45 30.99-26.42 37.65-26.42ZM65.93-21.34L65.93 10.16 59.87 10.16 59.87-26.42 65.46-26.42 65.93-21.34ZM83.07-13.48L83.07-12.96Q83.07-9.11 81.88-6.07 80.7-3.03 78.41-1.27 76.13 0.49 72.84 0.49L72.84 0.49Q69.52 0.49 67.33-1.14 65.15-2.76 63.93-5.62 62.7-8.47 62.24-12.13L62.24-12.13 62.24-13.87Q62.7-17.77 63.93-20.69 65.15-23.61 67.32-25.26 69.49-26.9 72.76-26.9L72.76-26.9Q76.11-26.9 78.4-25.22 80.7-23.54 81.88-20.51 83.07-17.48 83.07-13.48L83.07-13.48ZM77.01-12.96L77.01-13.48Q77.01-15.84 76.41-17.77 75.81-19.7 74.51-20.83 73.2-21.95 71.1-21.95L71.1-21.95Q69.59-21.95 68.49-21.45 67.39-20.95 66.65-20.04 65.9-19.14 65.49-17.91 65.07-16.67 64.9-15.21L64.9-15.21 64.9-10.79Q65.19-9.03 65.88-7.57 66.56-6.1 67.84-5.24 69.13-4.37 71.15-4.37L71.15-4.37Q73.25-4.37 74.55-5.55 75.84-6.74 76.43-8.68 77.01-10.62 77.01-12.96L77.01-12.96ZM96.16-37.5L96.16 0 90.1 0 90.1-37.5 96.16-37.5ZM103.12-12.94L103.12-13.45Q103.12-17.31 104.58-20.34 106.05-23.36 108.79-25.13 111.54-26.9 115.4-26.9L115.4-26.9Q119.31-26.9 122.06-25.13 124.82-23.36 126.28-20.34 127.73-17.31 127.73-13.45L127.73-13.45 127.73-12.94Q127.73-9.11 126.28-6.07 124.82-3.03 122.08-1.27 119.33 0.49 115.45 0.49L115.45 0.49Q111.57 0.49 108.81-1.27 106.05-3.03 104.58-6.07 103.12-9.11 103.12-12.94L103.12-12.94ZM109.17-13.45L109.17-12.94Q109.17-10.6 109.83-8.65 110.49-6.71 111.87-5.54 113.25-4.37 115.45-4.37L115.45-4.37Q117.62-4.37 119-5.54 120.38-6.71 121.03-8.65 121.67-10.6 121.67-12.94L121.67-12.94 121.67-13.45Q121.67-15.77 121.03-17.72 120.38-19.68 118.99-20.86 117.6-22.05 115.4-22.05L115.4-22.05Q113.23-22.05 111.85-20.86 110.47-19.68 109.82-17.72 109.17-15.77 109.17-13.45L109.17-13.45ZM140.4-21.24L140.4 0 134.35 0 134.35-26.42 140.11-26.42 140.4-21.24ZM148.41-26.59L148.36-20.85Q147.8-20.95 147.18-21 146.56-21.04 145.95-21.04L145.95-21.04Q143.94-21.04 142.61-20.32 141.28-19.6 140.6-18.27 139.92-16.94 139.79-15.14L139.79-15.14 138.4-15.11Q138.4-18.46 139.28-21.12 140.16-23.78 141.92-25.34 143.67-26.9 146.31-26.9L146.31-26.9Q146.82-26.9 147.46-26.81 148.09-26.71 148.41-26.59L148.41-26.59ZM165.48 0.49L165.48 0.49Q161.55 0.49 158.69-1.21 155.84-2.91 154.3-5.8 152.76-8.69 152.76-12.28L152.76-12.28 152.76-13.28Q152.76-17.41 154.32-20.47 155.89-23.54 158.61-25.22 161.33-26.9 164.77-26.9L164.77-26.9Q168.58-26.9 171.1-25.26 173.61-23.61 174.86-20.69 176.1-17.77 176.1-13.94L176.1-13.94 176.1-11.33 155.67-11.33 155.67-15.7 170.12-15.7 170.12-16.16Q170.07-17.7 169.53-19.04 169-20.39 167.84-21.22 166.68-22.05 164.75-22.05L164.75-22.05Q162.82-22.05 161.5-20.96 160.18-19.87 159.5-17.91 158.82-15.94 158.82-13.28L158.82-13.28 158.82-12.28Q158.82-10.03 159.65-8.25 160.48-6.47 162.06-5.43 163.65-4.39 165.85-4.39L165.85-4.39Q167.97-4.39 169.62-5.22 171.27-6.05 172.46-7.62L172.46-7.62 175.64-4.44Q174.39-2.56 171.89-1.04 169.39 0.49 165.48 0.49ZM195.35-12.94L195.35-13.45Q195.35-17.31 196.81-20.34 198.28-23.36 201.02-25.13 203.77-26.9 207.63-26.9L207.63-26.9Q211.54-26.9 214.29-25.13 217.05-23.36 218.51-20.34 219.96-17.31 219.96-13.45L219.96-13.45 219.96-12.94Q219.96-9.11 218.51-6.07 217.05-3.03 214.31-1.27 211.56 0.49 207.68 0.49L207.68 0.49Q203.8 0.49 201.04-1.27 198.28-3.03 196.81-6.07 195.35-9.11 195.35-12.94L195.35-12.94ZM201.4-13.45L201.4-12.94Q201.4-10.6 202.06-8.65 202.72-6.71 204.1-5.54 205.48-4.37 207.68-4.37L207.68-4.37Q209.85-4.37 211.23-5.54 212.61-6.71 213.26-8.65 213.9-10.6 213.9-12.94L213.9-12.94 213.9-13.45Q213.9-15.77 213.26-17.72 212.61-19.68 211.22-20.86 209.83-22.05 207.63-22.05L207.63-22.05Q205.46-22.05 204.08-20.86 202.7-19.68 202.05-17.72 201.4-15.77 201.4-13.45L201.4-13.45ZM242.4-6.25L242.4-26.42 248.45-26.42 248.45 0 242.74 0 242.4-6.25ZM243.23-11.77L245.26-11.82Q245.26-8.25 244.21-5.48 243.16-2.71 240.93-1.11 238.71 0.49 235.17 0.49L235.17 0.49Q231.27 0.49 228.85-1.81 226.43-4.1 226.43-9.35L226.43-9.35 226.43-26.42 232.49-26.42 232.49-9.3Q232.49-7.47 233.06-6.41 233.63-5.35 234.59-4.91 235.54-4.47 236.69-4.47L236.69-4.47Q239.15-4.47 240.58-5.43 242.01-6.4 242.62-8.06 243.23-9.72 243.23-11.77L243.23-11.77ZM262.18-21.24L262.18 0 256.12 0 256.12-26.42 261.89-26.42 262.18-21.24ZM270.19-26.59L270.14-20.85Q269.58-20.95 268.95-21 268.33-21.04 267.72-21.04L267.72-21.04Q265.72-21.04 264.39-20.32 263.06-19.6 262.37-18.27 261.69-16.94 261.57-15.14L261.57-15.14 260.18-15.11Q260.18-18.46 261.06-21.12 261.93-23.78 263.69-25.34 265.45-26.9 268.09-26.9L268.09-26.9Q268.6-26.9 269.23-26.81 269.87-26.71 270.19-26.59L270.19-26.59ZM296.15-26.42L296.15 0 290.09 0 290.09-26.42 296.15-26.42ZM289.7-33.33L289.7-33.33Q289.7-34.72 290.61-35.63 291.51-36.55 293.12-36.55L293.12-36.55Q294.73-36.55 295.66-35.63 296.59-34.72 296.59-33.33L296.59-33.33Q296.59-31.96 295.66-31.04 294.73-30.13 293.12-30.13L293.12-30.13Q291.51-30.13 290.61-31.04 289.7-31.96 289.7-33.33ZM318.98-7.2L318.98-7.2Q318.98-8.03 318.55-8.72 318.12-9.4 316.9-9.99 315.68-10.57 313.32-11.06L313.32-11.06Q310.51-11.65 308.37-12.62 306.24-13.6 305.05-15.14 303.87-16.67 303.87-18.9L303.87-18.9Q303.87-21.04 305.1-22.86 306.33-24.68 308.64-25.79 310.95-26.9 314.1-26.9L314.1-26.9Q317.42-26.9 319.81-25.79 322.2-24.68 323.48-22.79 324.77-20.9 324.77-18.51L324.77-18.51 318.71-18.51Q318.71-20.07 317.55-21.25 316.39-22.44 314.07-22.44L314.07-22.44Q312.63-22.44 311.67-21.97 310.7-21.51 310.23-20.78 309.75-20.04 309.75-19.17L309.75-19.17Q309.75-18.31 310.23-17.68 310.7-17.04 311.86-16.55 313.02-16.06 315.12-15.63L315.12-15.63Q318.15-14.99 320.35-14.03 322.54-13.06 323.73-11.49 324.91-9.91 324.91-7.5L324.91-7.5Q324.91-5.18 323.58-3.37 322.25-1.56 319.85-0.54 317.44 0.49 314.17 0.49L314.17 0.49Q310.53 0.49 308.04-0.81 305.55-2.1 304.27-4.11 302.99-6.13 302.99-8.3L302.99-8.3 308.82-8.3Q308.92-6.74 309.71-5.79 310.51-4.83 311.72-4.41 312.92-3.98 314.24-3.98L314.24-3.98Q315.81-3.98 316.84-4.39 317.88-4.81 318.43-5.53 318.98-6.25 318.98-7.2ZM338.15-37.5L338.15 0 332.09 0 332.09-37.5 338.15-37.5ZM361.05-5.42L361.05-17.85Q361.05-19.9 359.92-21.12 358.78-22.34 356.49-22.34L356.49-22.34Q355.12-22.34 354.1-21.86 353.07-21.39 352.51-20.58 351.95-19.78 351.95-18.75L351.95-18.75 345.89-18.75Q345.89-20.87 347.24-22.74 348.58-24.61 351.03-25.76 353.49-26.9 356.83-26.9L356.83-26.9Q359.81-26.9 362.13-25.9 364.45-24.9 365.78-22.88 367.11-20.85 367.11-17.8L367.11-17.8 367.11-6.15Q367.11-4.3 367.38-2.88 367.65-1.46 368.13-0.42L368.13-0.42 368.13 0 361.93 0Q361.52-0.95 361.29-2.47 361.05-3.98 361.05-5.42L361.05-5.42ZM361.93-16.09L361.98-12.35 357.83-12.35Q354.61-12.35 352.99-11.17 351.36-9.99 351.36-7.96L351.36-7.96Q351.36-6.4 352.44-5.36 353.51-4.32 355.46-4.32L355.46-4.32Q357.25-4.32 358.58-5.04 359.91-5.76 360.66-6.82 361.42-7.89 361.44-8.81L361.44-8.81 363.37-6.1Q363.08-5.1 362.38-3.97 361.69-2.83 360.55-1.82 359.42-0.81 357.87-0.16 356.32 0.49 354.27 0.49L354.27 0.49Q351.68 0.49 349.65-0.54 347.63-1.56 346.47-3.36 345.31-5.15 345.31-7.4L345.31-7.4Q345.31-11.6 348.46-13.84 351.61-16.09 357.39-16.09L357.39-16.09 361.93-16.09ZM380.91-20.78L380.91 0 374.85 0 374.85-26.42 380.54-26.42 380.91-20.78ZM379.83-14.16L377.88-14.14Q377.9-17.97 379.22-20.84 380.54-23.71 382.91-25.31 385.28-26.9 388.43-26.9L388.43-26.9Q390.99-26.9 392.87-25.94 394.75-24.98 395.8-22.81 396.85-20.65 396.85-17.02L396.85-17.02 396.85 0 390.77 0 390.77-17.07Q390.77-18.9 390.25-19.97 389.72-21.04 388.68-21.5 387.65-21.95 386.16-21.95L386.16-21.95Q384.64-21.95 383.48-21.35 382.32-20.75 381.51-19.68 380.69-18.6 380.26-17.19 379.83-15.77 379.83-14.16L379.83-14.16ZM420.54-5.54L420.54-37.5 426.59-37.5 426.59 0 421.1 0 420.54-5.54ZM403.4-12.92L403.4-13.43Q403.4-17.43 404.65-20.47 405.91-23.51 408.23-25.21 410.55-26.9 413.8-26.9L413.8-26.9Q417-26.9 419.14-25.24 421.29-23.58 422.53-20.64 423.76-17.7 424.17-13.82L424.17-13.82 424.17-12.4Q423.76-8.64 422.54-5.74 421.32-2.83 419.16-1.17 417 0.49 413.75 0.49L413.75 0.49Q410.55 0.49 408.23-1.26 405.91-3 404.65-6.03 403.4-9.06 403.4-12.92L403.4-12.92ZM409.45-13.43L409.45-12.92Q409.45-10.57 410.04-8.65 410.62-6.74 411.91-5.6 413.19-4.47 415.29-4.47L415.29-4.47Q417.26-4.47 418.55-5.33 419.83-6.2 420.55-7.69 421.27-9.18 421.54-11.04L421.54-11.04 421.54-15.16Q421.37-16.63 420.93-17.87 420.49-19.12 419.74-20.02 419-20.92 417.9-21.44 416.8-21.95 415.34-21.95L415.34-21.95Q413.24-21.95 411.93-20.81 410.62-19.68 410.04-17.74 409.45-15.8 409.45-13.43L409.45-13.43ZM455.73-6.03L461.8-26.42 465.66-26.42 464.64-19.97 458.51 0 455.09 0 455.73-6.03ZM452.31-26.42L457.04-5.96 457.36 0 453.53 0 446.4-26.42 452.31-26.42ZM471.25-6.2L475.82-26.42 481.7-26.42 474.6 0 470.76 0 471.25-6.2ZM466.32-26.42L472.33-6.25 473.03 0 469.59 0 463.39-20 462.39-26.42 466.32-26.42ZM493.82-26.42L493.82 0 487.76 0 487.76-26.42 493.82-26.42ZM487.37-33.33L487.37-33.33Q487.37-34.72 488.27-35.63 489.18-36.55 490.79-36.55L490.79-36.55Q492.4-36.55 493.33-35.63 494.26-34.72 494.26-33.33L494.26-33.33Q494.26-31.96 493.33-31.04 492.4-30.13 490.79-30.13L490.79-30.13Q489.18-30.13 488.27-31.04 487.37-31.96 487.37-33.33ZM514.13-26.42L514.13-21.95 499.14-21.95 499.14-26.42 514.13-26.42ZM503.39-32.89L509.45-32.89 509.45-7.45Q509.45-6.23 509.79-5.6 510.13-4.98 510.76-4.76 511.4-4.54 512.23-4.54L512.23-4.54Q512.84-4.54 513.4-4.61 513.96-4.69 514.3-4.76L514.3-4.76 514.3-0.1Q513.57 0.15 512.61 0.32 511.64 0.49 510.35 0.49L510.35 0.49Q508.32 0.49 506.75-0.24 505.17-0.98 504.28-2.62 503.39-4.27 503.39-7.01L503.39-7.01 503.39-32.89ZM526.25-37.5L526.25 0 520.19 0 520.19-37.5 526.25-37.5ZM525.2-14.16L523.24-14.14Q523.27-17.82 524.55-20.7 525.83-23.58 528.15-25.24 530.47-26.9 533.57-26.9L533.57-26.9Q536.18-26.9 538.12-25.92 540.06-24.93 541.14-22.74 542.21-20.56 542.21-16.92L542.21-16.92 542.21 0 536.13 0 536.13-16.97Q536.13-18.82 535.6-19.92 535.06-21.02 534.02-21.48 532.98-21.95 531.5-21.95L531.5-21.95Q529.93-21.95 528.76-21.35 527.59-20.75 526.78-19.68 525.98-18.6 525.59-17.19 525.2-15.77 525.2-14.16L525.2-14.16ZM576.18-26.42L576.18-21.95 561.19-21.95 561.19-26.42 576.18-26.42ZM565.44-32.89L571.49-32.89 571.49-7.45Q571.49-6.23 571.84-5.6 572.18-4.98 572.81-4.76 573.45-4.54 574.28-4.54L574.28-4.54Q574.89-4.54 575.45-4.61 576.01-4.69 576.35-4.76L576.35-4.76 576.35-0.1Q575.62 0.15 574.66 0.32 573.69 0.49 572.4 0.49L572.4 0.49Q570.37 0.49 568.8-0.24 567.22-0.98 566.33-2.62 565.44-4.27 565.44-7.01L565.44-7.01 565.44-32.89ZM588.3-37.5L588.3 0 582.24 0 582.24-37.5 588.3-37.5ZM587.25-14.16L585.29-14.14Q585.32-17.82 586.6-20.7 587.88-23.58 590.2-25.24 592.52-26.9 595.62-26.9L595.62-26.9Q598.23-26.9 600.17-25.92 602.11-24.93 603.19-22.74 604.26-20.56 604.26-16.92L604.26-16.92 604.26 0 598.18 0 598.18-16.97Q598.18-18.82 597.65-19.92 597.11-21.02 596.07-21.48 595.03-21.95 593.55-21.95L593.55-21.95Q591.98-21.95 590.81-21.35 589.64-20.75 588.83-19.68 588.03-18.6 587.64-17.19 587.25-15.77 587.25-14.16L587.25-14.16ZM623.55 0.49L623.55 0.49Q619.62 0.49 616.77-1.21 613.91-2.91 612.37-5.8 610.83-8.69 610.83-12.28L610.83-12.28 610.83-13.28Q610.83-17.41 612.4-20.47 613.96-23.54 616.68-25.22 619.4-26.9 622.85-26.9L622.85-26.9Q626.66-26.9 629.17-25.26 631.68-23.61 632.93-20.69 634.17-17.77 634.17-13.94L634.17-13.94 634.17-11.33 613.74-11.33 613.74-15.7 628.19-15.7 628.19-16.16Q628.14-17.7 627.61-19.04 627.07-20.39 625.91-21.22 624.75-22.05 622.82-22.05L622.82-22.05Q620.89-22.05 619.58-20.96 618.26-19.87 617.57-17.91 616.89-15.94 616.89-13.28L616.89-13.28 616.89-12.28Q616.89-10.03 617.72-8.25 618.55-6.47 620.14-5.43 621.72-4.39 623.92-4.39L623.92-4.39Q626.04-4.39 627.69-5.22 629.34-6.05 630.54-7.62L630.54-7.62 633.71-4.44Q632.47-2.56 629.96-1.04 627.46 0.49 623.55 0.49ZM654.55-37.5L660.6-37.5 660.6-5.71 660.01 0 654.55 0 654.55-37.5ZM677.79-13.45L677.79-12.94Q677.79-9.03 676.63-6.01 675.47-2.98 673.19-1.25 670.9 0.49 667.51 0.49L667.51 0.49Q664.21 0.49 662.05-1.17 659.89-2.83 658.71-5.75 657.52-8.67 657.08-12.48L657.08-12.48 657.08-13.92Q657.52-17.75 658.71-20.67 659.89-23.58 662.04-25.24 664.19-26.9 667.46-26.9L667.46-26.9Q670.88-26.9 673.17-25.2 675.47-23.49 676.63-20.46 677.79-17.43 677.79-13.45L677.79-13.45ZM671.73-12.94L671.73-13.45Q671.73-15.77 671.21-17.7 670.68-19.63 669.43-20.79 668.17-21.95 665.95-21.95L665.95-21.95Q664.41-21.95 663.31-21.44 662.21-20.92 661.47-20.02 660.72-19.12 660.31-17.9 659.89-16.67 659.75-15.26L659.75-15.26 659.75-11.11Q659.97-9.28 660.65-7.76 661.33-6.25 662.65-5.36 663.97-4.47 666-4.47L666-4.47Q668.17-4.47 669.41-5.59 670.66-6.71 671.2-8.63 671.73-10.55 671.73-12.94L671.73-12.94ZM696.08 0.49L696.08 0.49Q692.15 0.49 689.29-1.21 686.43-2.91 684.9-5.8 683.36-8.69 683.36-12.28L683.36-12.28 683.36-13.28Q683.36-17.41 684.92-20.47 686.48-23.54 689.21-25.22 691.93-26.9 695.37-26.9L695.37-26.9Q699.18-26.9 701.69-25.26 704.21-23.61 705.45-20.69 706.7-17.77 706.7-13.94L706.7-13.94 706.7-11.33 686.26-11.33 686.26-15.7 700.72-15.7 700.72-16.16Q700.67-17.7 700.13-19.04 699.59-20.39 698.43-21.22 697.27-22.05 695.35-22.05L695.35-22.05Q693.42-22.05 692.1-20.96 690.78-19.87 690.1-17.91 689.41-15.94 689.41-13.28L689.41-13.28 689.41-12.28Q689.41-10.03 690.24-8.25 691.07-6.47 692.66-5.43 694.25-4.39 696.44-4.39L696.44-4.39Q698.57-4.39 700.22-5.22 701.86-6.05 703.06-7.62L703.06-7.62 706.23-4.44Q704.99-2.56 702.49-1.04 699.98 0.49 696.08 0.49ZM727.67-7.2L727.67-7.2Q727.67-8.03 727.25-8.72 726.82-9.4 725.6-9.99 724.38-10.57 722.01-11.06L722.01-11.06Q719.2-11.65 717.07-12.62 714.93-13.6 713.75-15.14 712.56-16.67 712.56-18.9L712.56-18.9Q712.56-21.04 713.79-22.86 715.03-24.68 717.33-25.79 719.64-26.9 722.79-26.9L722.79-26.9Q726.11-26.9 728.5-25.79 730.9-24.68 732.18-22.79 733.46-20.9 733.46-18.51L733.46-18.51 727.41-18.51Q727.41-20.07 726.25-21.25 725.09-22.44 722.77-22.44L722.77-22.44Q721.33-22.44 720.36-21.97 719.4-21.51 718.92-20.78 718.45-20.04 718.45-19.17L718.45-19.17Q718.45-18.31 718.92-17.68 719.4-17.04 720.56-16.55 721.72-16.06 723.82-15.63L723.82-15.63Q726.84-14.99 729.04-14.03 731.24-13.06 732.42-11.49 733.61-9.91 733.61-7.5L733.61-7.5Q733.61-5.18 732.28-3.37 730.95-1.56 728.54-0.54 726.14 0.49 722.86 0.49L722.86 0.49Q719.23 0.49 716.74-0.81 714.25-2.1 712.96-4.11 711.68-6.13 711.68-8.3L711.68-8.3 717.52-8.3Q717.62-6.74 718.41-5.79 719.2-4.83 720.41-4.41 721.62-3.98 722.94-3.98L722.94-3.98Q724.5-3.98 725.54-4.39 726.58-4.81 727.12-5.53 727.67-6.25 727.67-7.2ZM752.63-26.42L752.63-21.95 737.64-21.95 737.64-26.42 752.63-26.42ZM741.89-32.89L747.94-32.89 747.94-7.45Q747.94-6.23 748.28-5.6 748.63-4.98 749.26-4.76 749.9-4.54 750.73-4.54L750.73-4.54Q751.34-4.54 751.9-4.61 752.46-4.69 752.8-4.76L752.8-4.76 752.8-0.1Q752.07 0.15 751.1 0.32 750.14 0.49 748.85 0.49L748.85 0.49Q746.82 0.49 745.24-0.24 743.67-0.98 742.78-2.62 741.89-4.27 741.89-7.01L741.89-7.01 741.89-32.89ZM787.67-7.2L787.67-7.2Q787.67-8.03 787.25-8.72 786.82-9.4 785.6-9.99 784.38-10.57 782.01-11.06L782.01-11.06Q779.2-11.65 777.07-12.62 774.93-13.6 773.74-15.14 772.56-16.67 772.56-18.9L772.56-18.9Q772.56-21.04 773.79-22.86 775.03-24.68 777.33-25.79 779.64-26.9 782.79-26.9L782.79-26.9Q786.11-26.9 788.5-25.79 790.9-24.68 792.18-22.79 793.46-20.9 793.46-18.51L793.46-18.51 787.4-18.51Q787.4-20.07 786.24-21.25 785.09-22.44 782.77-22.44L782.77-22.44Q781.33-22.44 780.36-21.97 779.4-21.51 778.92-20.78 778.44-20.04 778.44-19.17L778.44-19.17Q778.44-18.31 778.92-17.68 779.4-17.04 780.56-16.55 781.72-16.06 783.82-15.63L783.82-15.63Q786.84-14.99 789.04-14.03 791.24-13.06 792.42-11.49 793.61-9.91 793.61-7.5L793.61-7.5Q793.61-5.18 792.28-3.37 790.94-1.56 788.54-0.54 786.14 0.49 782.86 0.49L782.86 0.49Q779.23 0.49 776.74-0.81 774.25-2.1 772.96-4.11 771.68-6.13 771.68-8.3L771.68-8.3 777.52-8.3Q777.61-6.74 778.41-5.79 779.2-4.83 780.41-4.41 781.62-3.98 782.94-3.98L782.94-3.98Q784.5-3.98 785.54-4.39 786.57-4.81 787.12-5.53 787.67-6.25 787.67-7.2ZM811.24-4.37L811.24-4.37Q812.65-4.37 813.8-4.94 814.95-5.52 815.63-6.52 816.32-7.52 816.39-8.81L816.39-8.81 822.1-8.81Q822.03-6.2 820.56-4.1 819.1-2 816.68-0.76 814.26 0.49 811.29 0.49L811.29 0.49Q807.26 0.49 804.58-1.31 801.91-3.1 800.59-6.12 799.27-9.13 799.27-12.79L799.27-12.79 799.27-13.62Q799.27-17.29 800.59-20.3 801.91-23.32 804.58-25.11 807.26-26.9 811.29-26.9L811.29-26.9Q814.48-26.9 816.89-25.65 819.29-24.39 820.66-22.14 822.03-19.9 822.1-16.89L822.1-16.89 816.39-16.89Q816.32-18.31 815.69-19.48 815.07-20.65 813.93-21.35 812.8-22.05 811.21-22.05L811.21-22.05Q808.87-22.05 807.59-20.83 806.31-19.6 805.82-17.68 805.33-15.75 805.33-13.62L805.33-13.62 805.33-12.79Q805.33-10.64 805.81-8.72 806.28-6.79 807.58-5.58 808.87-4.37 811.24-4.37ZM827.14-12.94L827.14-13.45Q827.14-17.31 828.6-20.34 830.06-23.36 832.81-25.13 835.56-26.9 839.42-26.9L839.42-26.9Q843.32-26.9 846.08-25.13 848.84-23.36 850.29-20.34 851.74-17.31 851.74-13.45L851.74-13.45 851.74-12.94Q851.74-9.11 850.29-6.07 848.84-3.03 846.09-1.27 843.35 0.49 839.46 0.49L839.46 0.49Q835.58 0.49 832.82-1.27 830.06-3.03 828.6-6.07 827.14-9.11 827.14-12.94L827.14-12.94ZM833.19-13.45L833.19-12.94Q833.19-10.6 833.85-8.65 834.51-6.71 835.89-5.54 837.27-4.37 839.46-4.37L839.46-4.37Q841.64-4.37 843.02-5.54 844.4-6.71 845.04-8.65 845.69-10.6 845.69-12.94L845.69-12.94 845.69-13.45Q845.69-15.77 845.04-17.72 844.4-19.68 843-20.86 841.61-22.05 839.42-22.05L839.42-22.05Q837.24-22.05 835.86-20.86 834.48-19.68 833.84-17.72 833.19-15.77 833.19-13.45L833.19-13.45ZM857.24-12.94L857.24-13.45Q857.24-17.31 858.71-20.34 860.17-23.36 862.92-25.13 865.67-26.9 869.52-26.9L869.52-26.9Q873.43-26.9 876.19-25.13 878.95-23.36 880.4-20.34 881.85-17.31 881.85-13.45L881.85-13.45 881.85-12.94Q881.85-9.11 880.4-6.07 878.95-3.03 876.2-1.27 873.45 0.49 869.57 0.49L869.57 0.49Q865.69 0.49 862.93-1.27 860.17-3.03 858.71-6.07 857.24-9.11 857.24-12.94L857.24-12.94ZM863.3-13.45L863.3-12.94Q863.3-10.6 863.96-8.65 864.62-6.71 865.99-5.54 867.37-4.37 869.57-4.37L869.57-4.37Q871.74-4.37 873.12-5.54 874.5-6.71 875.15-8.65 875.8-10.6 875.8-12.94L875.8-12.94 875.8-13.45Q875.8-15.77 875.15-17.72 874.5-19.68 873.11-20.86 871.72-22.05 869.52-22.05L869.52-22.05Q867.35-22.05 865.97-20.86 864.59-19.68 863.94-17.72 863.3-15.77 863.3-13.45L863.3-13.45ZM900.61-26.42L900.61-21.95 885.62-21.95 885.62-26.42 900.61-26.42ZM889.86-32.89L895.92-32.89 895.92-7.45Q895.92-6.23 896.26-5.6 896.6-4.98 897.24-4.76 897.87-4.54 898.7-4.54L898.7-4.54Q899.31-4.54 899.87-4.61 900.44-4.69 900.78-4.76L900.78-4.76 900.78-0.1Q900.04 0.15 899.08 0.32 898.12 0.49 896.82 0.49L896.82 0.49Q894.8 0.49 893.22-0.24 891.65-0.98 890.76-2.62 889.86-4.27 889.86-7.01L889.86-7.01 889.86-32.89ZM918.46 0.49L918.46 0.49Q914.53 0.49 911.67-1.21 908.81-2.91 907.28-5.8 905.74-8.69 905.74-12.28L905.74-12.28 905.74-13.28Q905.74-17.41 907.3-20.47 908.86-23.54 911.58-25.22 914.31-26.9 917.75-26.9L917.75-26.9Q921.56-26.9 924.07-25.26 926.59-23.61 927.83-20.69 929.08-17.77 929.08-13.94L929.08-13.94 929.08-11.33 908.64-11.33 908.64-15.7 923.1-15.7 923.1-16.16Q923.05-17.7 922.51-19.04 921.97-20.39 920.81-21.22 919.65-22.05 917.72-22.05L917.72-22.05Q915.8-22.05 914.48-20.96 913.16-19.87 912.48-17.91 911.79-15.94 911.79-13.28L911.79-13.28 911.79-12.28Q911.79-10.03 912.62-8.25 913.45-6.47 915.04-5.43 916.63-4.39 918.82-4.39L918.82-4.39Q920.95-4.39 922.6-5.22 924.24-6.05 925.44-7.62L925.44-7.62 928.61-4.44Q927.37-2.56 924.87-1.04 922.36 0.49 918.46 0.49ZM941.36-21.24L941.36 0 935.31 0 935.31-26.42 941.07-26.42 941.36-21.24ZM949.37-26.59L949.32-20.85Q948.76-20.95 948.14-21 947.51-21.04 946.9-21.04L946.9-21.04Q944.9-21.04 943.57-20.32 942.24-19.6 941.56-18.27 940.87-16.94 940.75-15.14L940.75-15.14 939.36-15.11Q939.36-18.46 940.24-21.12 941.12-23.78 942.88-25.34 944.63-26.9 947.27-26.9L947.27-26.9Q947.78-26.9 948.42-26.81 949.05-26.71 949.37-26.59L949.37-26.59ZM969.49-7.2L969.49-7.2Q969.49-8.03 969.06-8.72 968.64-9.4 967.42-9.99 966.2-10.57 963.83-11.06L963.83-11.06Q961.02-11.65 958.88-12.62 956.75-13.6 955.56-15.14 954.38-16.67 954.38-18.9L954.38-18.9Q954.38-21.04 955.61-22.86 956.85-24.68 959.15-25.79 961.46-26.9 964.61-26.9L964.61-26.9Q967.93-26.9 970.32-25.79 972.71-24.68 974-22.79 975.28-20.9 975.28-18.51L975.28-18.51 969.22-18.51Q969.22-20.07 968.06-21.25 966.9-22.44 964.58-22.44L964.58-22.44Q963.14-22.44 962.18-21.97 961.22-21.51 960.74-20.78 960.26-20.04 960.26-19.17L960.26-19.17Q960.26-18.31 960.74-17.68 961.22-17.04 962.38-16.55 963.53-16.06 965.63-15.63L965.63-15.63Q968.66-14.99 970.86-14.03 973.06-13.06 974.24-11.49 975.42-9.91 975.42-7.5L975.42-7.5Q975.42-5.18 974.09-3.37 972.76-1.56 970.36-0.54 967.95 0.49 964.68 0.49L964.68 0.49Q961.04 0.49 958.55-0.81 956.06-2.1 954.78-4.11 953.5-6.13 953.5-8.3L953.5-8.3 959.34-8.3Q959.43-6.74 960.23-5.79 961.02-4.83 962.23-4.41 963.44-3.98 964.76-3.98L964.76-3.98Q966.32-3.98 967.36-4.39 968.39-4.81 968.94-5.53 969.49-6.25 969.49-7.2Z" opacity="1" transform="matrix(1,0,0,1,0,0)" fill="#ee7d23" class="slogan-text-1" data-fill-palette-color="secondary" id="text-1"></path></svg></g></svg></g></svg></g></svg></g><g transform="matrix(1,0,0,1,86.00033840844408,0)"><svg viewBox="0 0 72.4306831831118 41.52723511385451" height="41.52723511385451" width="72.4306831831118"><g><svg xmlns="http://www.w3.org/2000/svg" xmlns:xlink="http://www.w3.org/1999/xlink" version="1.1" x="0" y="0" viewBox="0 21.333260342058185 99.99996198836618 57.33373965794182" enable-background="new 0 0 100 100" xml:space="preserve" height="41.52723511385451" width="72.4306831831118" class="icon-icon-0" data-fill-palette-color="accent" id="icon-0"><path fill="#ea6b62" d="M99.914 42.687c-0.692-1.557-1.573-2.824-2.651-4.063-1.073-1.217-2.329-2.31-3.729-3.235-0.798-0.527-1.646-0.993-2.522-1.408 0.039-0.035 0.07-0.071 0.108-0.106 0.447-0.393 0.946-0.771 1.479-1.12 0.525-0.349 1.119-0.681 1.662-0.965l0.114-0.06c0.256-0.135 0.455-0.376 0.527-0.68 0.13-0.558-0.217-1.117-0.774-1.248-0.754-0.177-1.452-0.309-2.203-0.403-0.745-0.095-1.508-0.146-2.303-0.141-0.794 0.009-1.62 0.076-2.49 0.251-0.364 0.076-0.74 0.185-1.118 0.305-0.725-1.524-1.668-2.993-2.87-4.223-1.333-1.381-2.959-2.399-4.595-3.055-1.645-0.659-3.298-0.989-4.907-1.195-0.425-0.053-0.855 0.169-1.043 0.58-0.231 0.505-0.009 1.103 0.496 1.335l0.012 0.005c1.385 0.634 2.683 1.368 3.748 2.25 1.065 0.884 1.884 1.897 2.42 3.012 0.024 0.049 0.04 0.1 0.063 0.148-2.215-0.735-4.469-1.097-6.672-1.143-2.479-0.049-4.903 0.261-7.22 0.877-2.313 0.62-4.537 1.543-6.524 2.858-0.384 0.254-0.553 0.75-0.379 1.198 0.2 0.515 0.78 0.77 1.296 0.569l0.018-0.007c1.961-0.764 4.061-1.141 6.14-1.239 2.08-0.095 4.152 0.096 6.1 0.565 0.893 0.214 1.752 0.497 2.576 0.828-0.393 0.177-0.784 0.354-1.159 0.551-1.034 0.548-2.017 1.165-2.938 1.878-0.916 0.72-1.799 1.523-2.486 2.579-0.197 0.306-0.224 0.71-0.03 1.048 0.275 0.483 0.89 0.652 1.375 0.376l0.109-0.062c0.732-0.417 1.628-0.686 2.534-0.865 0.912-0.179 1.853-0.27 2.776-0.289 0.494-0.009 0.982 0.006 1.461 0.042-0.244 0.184-0.49 0.367-0.729 0.558-2.827 2.264-5.291 5.013-7.306 8.09s-3.564 6.491-4.609 10.064c-0.247 0.832-0.46 1.68-0.652 2.532-4.729-0.777-9.527-1.175-14.297-1.183v-7.972h2.643c1.553 0 1.926-0.899 0.827-1.998L37.52 33.855c-1.099-1.099-2.895-1.099-3.993 0L18.854 48.527c-1.099 1.099-0.727 1.998 0.827 1.998h2.643v12.148C13.712 65.602 5.994 70.056 0 76.05c1.622-0.474 3.335-0.738 5.093-0.738 2.741 0 5.367 0.635 7.701 1.7 2.282 1.043 4.834 1.655 7.479 1.655 2.657 0 5.209-0.612 7.488-1.655 2.319-1.067 4.954-1.7 7.7-1.7 2.734 0 5.37 0.635 7.701 1.7 2.271 1.043 4.808 1.655 7.47 1.655 2.659 0 5.203-0.612 7.498-1.655 2.324-1.067 4.961-1.7 7.679-1.7 2.747 0 5.378 0.635 7.711 1.7 2.263 1.043 4.838 1.655 7.467 1.655 2.659 0 5.196-0.612 7.498-1.655 2.322-1.067 4.953-1.7 7.684-1.7 1.048 0 2.079 0.094 3.085 0.269-8.357-7.042-18.711-11.887-29.718-14.575 0.061-0.825 0.146-1.651 0.268-2.479 0.452-3.107 1.349-6.169 2.705-9.055 1.356-2.882 3.166-5.593 5.392-7.953 0.669-0.708 1.38-1.384 2.122-2.026 0.433 0.143 0.899 0.22 1.375 0.207 0.156-0.004 0.303-0.037 0.455-0.059 0.126 0.088 0.254 0.169 0.391 0.242 0.402 0.791 0.747 1.669 1.014 2.593 0.284 0.986 0.486 2.02 0.589 3.06 0.102 1.037 0.107 2.098-0.09 3.049l-0.021 0.096c-0.076 0.375 0.065 0.779 0.395 1.019 0.451 0.327 1.081 0.227 1.408-0.224 0.795-1.095 1.295-2.282 1.701-3.488 0.4-1.21 0.687-2.454 0.867-3.733 0.132-0.953 0.208-1.927 0.208-2.932 1.051 0.043 2.104 0.188 3.146 0.456 1.231 0.317 2.446 0.805 3.598 1.463 1.135 0.642 2.274 1.52 3.125 2.431l0.094 0.101c0.282 0.301 0.735 0.406 1.133 0.229C99.911 43.778 100.137 43.189 99.914 42.687z" data-fill-palette-color="accent"></path></svg></g></svg></g><g></g></svg></g></svg></g></svg></g><g><path d="M84.739 77.094A122.216 122.216 0 0 1 310.781 77.094L308.949 77.094A120.384 120.384 0 0 0 86.571 77.094L84.739 77.094M84.739 170.106A122.216 122.216 0 0 0 310.781 170.106L308.949 170.106A120.384 120.384 0 0 1 86.571 170.106L84.739 170.106" fill="#ee7d23" stroke="transparent" data-fill-palette-color="tertiary"></path></g></svg></g><defs></defs></svg><rect width="395.52" height="247.2" fill="none" stroke="none" visibility="hidden"></rect></g></svg></g></svg>